<?xml version="1.0" encoding="UTF-8"?>
<svg id="Layer_1" data-name="Layer 1" xmlns="http://www.w3.org/2000/svg" xmlns:xlink="http://www.w3.org/1999/xlink" viewBox="0 0 935.01 919.67">
  <defs>
    <style>
      .cls-1 {
        fill: url(#linear-gradient);
      }

      .cls-1, .cls-2, .cls-3, .cls-4, .cls-5, .cls-6, .cls-7, .cls-8, .cls-9, .cls-10, .cls-11 {
        stroke-width: 0px;
      }

      .cls-2 {
        fill: url(#linear-gradient-6);
      }

      .cls-3 {
        fill: url(#linear-gradient-5);
      }

      .cls-12 {
        filter: url(#drop-shadow-1);
      }

      .cls-4 {
        fill: url(#linear-gradient-2);
      }

      .cls-5 {
        fill: url(#linear-gradient-7);
      }

      .cls-6 {
        fill: url(#linear-gradient-3);
      }

      .cls-7 {
        fill: #231f20;
      }

      .cls-8 {
        fill: url(#linear-gradient-9);
      }

      .cls-9 {
        fill: url(#linear-gradient-8);
      }

      .cls-10 {
        fill: #2b2d32;
      }

      .cls-11 {
        fill: url(#linear-gradient-4);
      }
    </style>
    <linearGradient id="linear-gradient" x1="334.22" y1="725.22" x2="704.47" y2="-133.36" gradientUnits="userSpaceOnUse">
      <stop offset=".14" stop-color="#633f8f"/>
      <stop offset=".22" stop-color="#604694"/>
      <stop offset=".36" stop-color="#595ca5"/>
      <stop offset=".45" stop-color="#546fb4"/>
      <stop offset=".49" stop-color="#5273b4"/>
      <stop offset=".53" stop-color="#4d7fb7"/>
      <stop offset=".57" stop-color="#4792bb"/>
      <stop offset=".74" stop-color="#4eacca"/>
      <stop offset=".89" stop-color="#53bfd5"/>
      <stop offset="1" stop-color="#55c6d9"/>
    </linearGradient>
    <linearGradient id="linear-gradient-2" x1="127.43" y1="890.72" x2="235.9" y2="782.25" xlink:href="#linear-gradient"/>
    <linearGradient id="linear-gradient-3" x1="231.65" y1="890.7" x2="308.48" y2="813.87" xlink:href="#linear-gradient"/>
    <linearGradient id="linear-gradient-4" x1="303.53" y1="889.83" x2="376.27" y2="817.1" xlink:href="#linear-gradient"/>
    <linearGradient id="linear-gradient-5" x1="409.23" y1="927.98" x2="514.23" y2="822.97" xlink:href="#linear-gradient"/>
    <linearGradient id="linear-gradient-6" x1="561.16" y1="911.29" x2="631.09" y2="841.36" xlink:href="#linear-gradient"/>
    <linearGradient id="linear-gradient-7" x1="644.3" y1="890.96" x2="710.31" y2="824.95" xlink:href="#linear-gradient"/>
    <linearGradient id="linear-gradient-8" x1="723.65" y1="905.49" x2="789.1" y2="840.04" xlink:href="#linear-gradient"/>
    <filter id="drop-shadow-1" filterUnits="userSpaceOnUse">
      <feOffset dx="-20" dy="-18"/>
      <feGaussianBlur result="blur" stdDeviation="11"/>
      <feFlood flood-color="#231f20" flood-opacity=".41"/>
      <feComposite in2="blur" operator="in"/>
      <feComposite in="SourceGraphic"/>
    </filter>
    <linearGradient id="linear-gradient-9" x1="717.82" y1="794.27" x2="625.43" y2="336.41" gradientUnits="userSpaceOnUse">
      <stop offset="0" stop-color="#655aa6"/>
      <stop offset=".12" stop-color="#6159a5"/>
      <stop offset=".23" stop-color="#5757a2"/>
      <stop offset=".32" stop-color="#47549f"/>
      <stop offset=".38" stop-color="#415da4"/>
      <stop offset=".47" stop-color="#3177b2"/>
      <stop offset=".6" stop-color="#19a2c9"/>
      <stop offset=".64" stop-color="#10b2d2"/>
    </linearGradient>
  </defs>
  <path class="cls-1" d="M735.76,76.18l-5.38-19.97c-10.71-39.66-48.88-63.84-85.28-54.02L168.29,130.88l9.48,35.13-12.54,5.29,10.69,33.74v90.83h11.76v45.2h69.8v75.03l-97.4-.78v38.22l27.6.07h86.58v75.03h-86.58v48.76c0,41.88,35.55,75.83,79.41,75.83h464.87v-357.36h11.76v-93.52h-475.46l467.5-126.17ZM175.92,304.67H44.04v35.42h131.88v-35.42ZM236.97,360.59h-126.99v35.42h126.99v-35.42ZM44.04,416.51H8.62v35.42h35.42v-35.42ZM69.9,451.92h66.87v-35.42h-66.87v35.42ZM806.74,305.25h-51.73v34.25h51.73v-34.25ZM782.97,416.39h-27.96v36.35h27.96v-36.35ZM857.77,360.12h-102.76v36.35h102.76v-36.35ZM803.94,415v36.35h131.07v-36.35h-131.07ZM897.96,509.01h36.35v-36.35h-36.35v36.35ZM874.19,472.67h-119.18v36.35h119.18v-36.35ZM810.93,565.29h108v-36.35h-108v36.35ZM756.76,565.29h31.81v-36.35h-31.81v36.35ZM89.3,508.55h168.35v-35.42H89.3v35.42ZM139.57,565.17h33.32v-35.42h-33.32v35.42ZM79.46,621.8h92.74v-35.42h-92.74v35.42ZM117.9,529.76H0v35.42h117.9v-35.42ZM135.84,101.64h-25.86v29.36h25.86v-29.36ZM113.71,194.15h34.49v-34.49h-34.49v34.49ZM87.61,154.07h-22.83v22.83h22.83v-22.83Z"/>
  <g>
    <path class="cls-7" d="M542.83,453.23l-120.99,66.6c-10.93,6.02-24.32-1.85-24.38-14.33l-.61-134.23c-.06-12.57,13.45-20.56,24.44-14.45l121.6,67.63c11.3,6.28,11.26,22.55-.06,28.78Z"/>
    <g>
      <g>
        <polygon class="cls-7" points="338.14 220.39 282.11 287.55 217.14 287.55 273.59 220.39 338.14 220.39"/>
        <polygon class="cls-7" points="337.14 169.74 274.16 185.71 203.35 134.38 265.92 118.52 337.14 169.74"/>
      </g>
      <g>
        <polygon class="cls-7" points="454.13 221.39 398.1 288.55 333.13 288.55 389.58 221.39 454.13 221.39"/>
        <polygon class="cls-7" points="453.16 134.63 390.18 150.6 319.36 99.27 381.93 83.41 453.16 134.63"/>
      </g>
      <g>
        <polygon class="cls-7" points="583.22 103.49 520.25 119.45 449.43 68.12 512 52.26 583.22 103.49"/>
        <polygon class="cls-7" points="585.17 221.39 529.14 288.55 464.17 288.55 520.62 221.39 585.17 221.39"/>
      </g>
      <g>
        <polygon class="cls-7" points="703.58 69.89 640.6 85.86 569.78 34.53 632.35 18.66 703.58 69.89"/>
        <polygon class="cls-7" points="705.44 221.39 649.41 288.55 584.44 288.55 640.89 221.39 705.44 221.39"/>
      </g>
    </g>
  </g>
  <circle class="cls-7" cx="225.9" cy="199.12" r="14.73" transform="translate(-22.64 29.09) rotate(-7.02)"/>
  <g>
    <path class="cls-4" d="M155.01,918.3v-132.04h21.7v132.04h-21.7ZM164.09,807.06v-20.8h75.83v20.8h-75.83ZM164.09,864.27v-20.7h65.84v20.7h-65.84Z"/>
    <path class="cls-6" d="M259.26,807.97v-21.7h21.61v21.7h-21.61ZM259.26,918.3v-94.26h21.61v94.26h-21.61Z"/>
    <path class="cls-11" d="M339.9,887.25l21.25-63.2h22.07l-35.42,94.26h-15.8l-35.42-94.26h22.07l21.25,63.2Z"/>
    <path class="cls-3" d="M399.56,918.3v-94.26h21.7v94.26h-21.7ZM455.23,918.3v-55.76c0-6.05-1.5-10.75-4.5-14.08-3-3.33-7.25-4.99-12.76-4.99s-9.44,1.45-12.35,4.36c-2.91,2.91-4.36,6.96-4.36,12.17l-1.91-19.52c2.78-5.69,6.39-10.08,10.81-13.17,4.42-3.09,9.5-4.63,15.26-4.63,9.99,0,17.72,3.47,23.2,10.4,5.48,6.93,8.22,16.73,8.22,29.38v55.85h-21.61ZM510.8,918.3v-55.76c0-6.05-1.51-10.75-4.54-14.08-3.03-3.33-7.33-4.99-12.89-4.99-5.27,0-9.34,1.6-12.21,4.81-2.88,3.21-4.31,7.72-4.31,13.53l-4.18-19.98c3.03-6.17,6.95-10.91,11.76-14.21,4.81-3.3,10.13-4.95,15.94-4.95,10.23,0,18.15,3.47,23.75,10.4,5.6,6.93,8.4,16.73,8.4,29.38v55.85h-21.7Z"/>
    <path class="cls-2" d="M586.72,919.67c-10.78,0-18.87-2.39-24.29-7.17-5.42-4.78-8.13-12.11-8.13-21.98s2.72-16.39,8.17-21.02c5.45-4.63,13.62-6.95,24.52-6.95h25.25l1.27,16.89h-26.43c-4.3,0-7.52.91-9.67,2.72-2.15,1.82-3.22,4.6-3.22,8.35,0,3.94,1.39,6.86,4.18,8.76,2.78,1.91,6.99,2.86,12.62,2.86,6.84,0,11.96-.76,15.35-2.27,3.39-1.51,5.08-3.87,5.08-7.08l1.91,13.44c-1.03,3.09-2.86,5.62-5.49,7.58-2.63,1.97-5.77,3.44-9.4,4.4-3.63.97-7.54,1.45-11.71,1.45ZM611.42,918.3v-59.75c0-5.27-1.56-9.35-4.68-12.26-3.12-2.91-7.52-4.36-13.21-4.36-3.63,0-7.21.56-10.71,1.68-3.51,1.12-6.66,2.74-9.44,4.86l-14.44-12.17c3.69-4.3,8.54-7.64,14.53-10.04,5.99-2.39,12.65-3.59,19.98-3.59,12.11,0,21.48,3.06,28.11,9.17,6.63,6.12,9.94,14.74,9.94,25.88v60.57h-20.07Z"/>
    <path class="cls-5" d="M650.56,843.02v-18.98h44.32v18.98h-44.32ZM683.25,918.76c-8.05,0-13.89-2.15-17.53-6.45-3.63-4.3-5.45-10.47-5.45-18.53v-97.17h21.7v94.17c0,2.24.45,4,1.36,5.27.91,1.27,2.24,1.91,4,1.91h7.54v20.8h-11.62Z"/>
    <path class="cls-9" d="M757.99,919.67c-13.38,0-23.76-3.66-31.15-10.99-7.39-7.32-11.08-17.74-11.08-31.24v-10.62c0-14.04,3.54-24.91,10.62-32.6,7.08-7.69,17.07-11.53,29.97-11.53,12.17,0,21.58,4.47,28.24,13.39,6.66,8.93,9.99,21.51,9.99,37.73v6.17h-64.02v-15.89h43.86l-.09-1c-.61-6.54-2.45-11.64-5.54-15.3-3.09-3.66-7.24-5.49-12.44-5.49-6.48,0-11.52,2.04-15.12,6.13-3.6,4.09-5.4,9.88-5.4,17.39v11.99c0,7.14,1.94,12.64,5.81,16.48,3.87,3.85,9.32,5.77,16.35,5.77,3.57,0,7.1-.68,10.58-2.04,3.48-1.36,6.61-3.25,9.4-5.68l14.17,13.26c-4.78,4.48-10.16,7.95-16.12,10.4-5.96,2.45-11.97,3.68-18.03,3.68Z"/>
  </g>
  <g class="cls-12">
    <path class="cls-8" d="M771.1,624.3l-38.33,29.96c-1.78,1.39-2.06,3.98-.61,5.72l35.59,42.61c4.09,4.89,3.44,12.17-1.45,16.27l-39.4,32.91c-4.9,4.09-12.18,3.44-16.27-1.46l-35.05-41.95c-1.53-1.83-4.31-1.92-5.96-.2l-31.86,33.31c-2.55,2.24-6.57,1.02-7.44-2.26l-56.21-211.56c-1.01-3.81,2.94-7.02,6.46-5.27l189.56,94.4c2.9,1.45,3.41,5.38.97,7.52Z"/>
    <path class="cls-10" d="M741.29,628.53l-28.91,22.6,26.58,31.82c2.84,3.4,2.39,8.46-1.01,11.31l-27.39,22.88c-3.41,2.84-8.47,2.39-11.31-1.01l-26.36-31.54-24.29,25.4c-1.77,1.56-4.57.71-5.17-1.57l-39.07-147.06c-.7-2.65,2.04-4.88,4.49-3.66l131.76,65.62c2.02,1.01,2.37,3.74.67,5.23Z"/>
  </g>
</svg>